<?xml version="1.0" encoding="UTF-8" standalone="no"?>
<!-- Created with Inkscape (http://www.inkscape.org/) -->

<svg
   width="210mm"
   height="297mm"
   viewBox="0 0 210 297"
   version="1.1"
   id="svg1"
   inkscape:version="1.3.2 (091e20e, 2023-11-25, custom)"
   sodipodi:docname="AuxiliaryCamera_Graphic.svg"
   xml:space="preserve"
   xmlns:inkscape="http://www.inkscape.org/namespaces/inkscape"
   xmlns:sodipodi="http://sodipodi.sourceforge.net/DTD/sodipodi-0.dtd"
   xmlns="http://www.w3.org/2000/svg"
   xmlns:svg="http://www.w3.org/2000/svg"><sodipodi:namedview
     id="namedview1"
     pagecolor="#ffffff"
     bordercolor="#000000"
     borderopacity="0.25"
     inkscape:showpageshadow="2"
     inkscape:pageopacity="0.0"
     inkscape:pagecheckerboard="0"
     inkscape:deskcolor="#d1d1d1"
     inkscape:document-units="mm"
     inkscape:zoom="1.1002034"
     inkscape:cx="622.61213"
     inkscape:cy="480.36571"
     inkscape:window-width="2560"
     inkscape:window-height="1494"
     inkscape:window-x="2869"
     inkscape:window-y="-11"
     inkscape:window-maximized="1"
     inkscape:current-layer="layer1" /><defs
     id="defs1"><clipPath
       clipPathUnits="userSpaceOnUse"
       id="clipPath1"><rect
         style="fill:none;stroke-width:2.90399;stroke-linejoin:round"
         id="rect2"
         width="75.51255"
         height="75.031593"
         x="37.996765"
         y="85.131973" /></clipPath></defs><g
     inkscape:label="Layer 1"
     inkscape:groupmode="layer"
     id="layer1"><g
       id="g22"
       inkscape:export-filename="AuxiliaryCamera_GraphicFinal.svg"
       inkscape:export-xdpi="96"
       inkscape:export-ydpi="96"><path
         style="fill:none;stroke-width:2.90399;stroke-linejoin:round;stroke:#fec636;stroke-opacity:1"
         d="M 96.194331,139.24129 162.56842,98.358702 146.21538,141.16518 82.727124,188.05992 Z"
         id="path2" /><path
         style="fill:none;stroke:#fec636;stroke-width:2.90399;stroke-linejoin:round;stroke-opacity:1"
         d="M 96.074089,139.72227 70.101618,121.68583 142.00688,84.410525 162.44818,98.118217"
         id="path3" /><path
         style="fill:none;stroke:#fec636;stroke-width:2.90399;stroke-linejoin:round;stroke-opacity:1"
         d="m 69.981375,121.56559 -11.062348,50.26153 23.327127,15.87207"
         id="path4" /><path
         style="fill:none;stroke:#fec636;stroke-width:2.90399;stroke-linejoin:round;stroke-opacity:1"
         d="m 106.17449,154.87287 -4.08826,13.94818 44.73037,-32.82631 4.2085,-12.50527 z"
         id="path5" /><path
         style="fill:none;stroke:#fec636;stroke-width:2.90399;stroke-linejoin:round;stroke-opacity:1"
         d="m 102.80769,152.10729 3.3668,2.64534"
         id="path6" /><path
         style="fill:none;stroke:#fec636;stroke-width:2.90399;stroke-linejoin:round;stroke-opacity:1"
         d="m 97.997974,166.65668 3.968016,2.16437"
         id="path7" /><path
         style="fill:none;stroke:#fec636;stroke-width:2.90399;stroke-linejoin:round;stroke-opacity:1"
         d="m 148.13927,121.08461 3.24656,2.5251"
         id="path8" /><path
         style="fill:none;stroke:#fec636;stroke-width:2.90399;stroke-linejoin:round;stroke-opacity:1"
         d="m 85.853441,131.90648 9.138459,-5.41094 -12.986234,-8.29676 -2.16437,-1.80364"
         id="path9" /><path
         style="fill:none;stroke:#fec636;stroke-width:2.90399;stroke-linejoin:round;stroke-opacity:1"
         d="m 89.701213,112.18664 13.467207,9.61943 38.35749,-22.72591 -10.94211,-6.974088"
         id="path10" /><path
         style="fill:none;stroke:#fec636;stroke-width:2.90399;stroke-linejoin:round;stroke-opacity:1"
         d="m 135.99474,87.897569 11.66356,7.815789 5.8919,-3.607286"
         id="path11" /><path
         style="fill:none;stroke:#fec636;stroke-width:2.90399;stroke-linejoin:round;stroke-opacity:1"
         d="m 131.54575,92.827529 -1.92389,-1.803643"
         id="path12" /><path
         style="fill:none;stroke:#fec636;stroke-width:2.90399;stroke-linejoin:round;stroke-opacity:1"
         d="m 112.14742,153.97951 -0.72271,0.85025 -0.3401,0.80773 -0.3401,0.80774 -0.29758,0.76522 c 0,0 -0.12754,0.59517 0.085,0.63768 0.21256,0.0425 0.6802,0.46764 0.6802,0.46764 0,0 0.25507,0.0425 0.42512,0.12753 0.17005,0.085 0.80774,0.12754 0.80774,0.12754 0,0 0.7227,0 0.89275,-0.12754 0.17005,-0.12753 0.76522,-0.55266 0.93527,-0.68019 0.17006,-0.12754 0.59518,-0.59517 0.80774,-0.6802 0.21256,-0.085 0.51015,-0.38261 0.68019,-0.59517 0.17005,-0.21256 0.38262,-0.97778 0.59518,-1.27537 0.21256,-0.29759 0.38261,-1.06281 0.38261,-1.06281 0,0 0.085,-0.72271 0.0425,-0.89276 -0.0425,-0.17004 -0.12754,-0.34009 -0.25507,-0.51014 -0.12754,-0.17005 -0.46764,-0.51015 -0.46764,-0.51015 l -0.42512,-0.3401 -0.89276,-0.12754 -0.85025,0.085 -0.59517,0.42512 -0.63768,0.55266 -0.42513,0.51015 z"
         id="path13" /><path
         style="fill:none;stroke:#fec636;stroke-width:2.90399;stroke-linejoin:round;stroke-opacity:1"
         d="m 142.067,132.23714 -0.63127,0.75152 -0.90183,1.41286 c 0,0 -0.57115,0.78158 -0.60121,0.992 -0.0301,0.21043 -0.1503,1.05213 -0.1503,1.05213 0,0 -0.0301,0.69139 0,0.81164 0.0301,0.12024 -0.15031,0.66133 0.21042,0.66133 0.36073,0 0.72146,0.0601 0.93188,0.0601 0.21043,0 0.87177,0.0601 1.02207,-0.0902 0.1503,-0.1503 0.39079,-0.27054 0.75152,-0.60121 0.36073,-0.33067 1.17237,-0.78158 1.32267,-1.14231 0.1503,-0.36073 0.42085,-0.8417 0.42085,-1.02207 0,-0.18036 0.0601,-0.51103 0.0601,-0.63127 0,-0.12024 -0.0301,-0.63128 -0.0601,-0.75152 -0.0301,-0.12024 -0.12024,-0.6914 -0.24049,-0.81164 -0.12024,-0.12024 -0.1503,-0.1503 -0.1503,-0.1503 0,0 -0.51103,-0.27055 -0.66134,-0.33067 -0.1503,-0.0601 -0.39079,-0.24049 -0.51103,-0.24049 -0.12024,0 -0.81164,0.0301 -0.81164,0.0301 z"
         id="path14" /><path
         style="fill:none;stroke:#fec636;stroke-width:2.90399;stroke-linejoin:round;stroke-opacity:1"
         d="m 87.107682,110.95708 -1.615466,-1.57296 c 0,0 -1.190345,-1.36039 -1.360395,-1.44542 -0.170048,-0.085 -1.445416,-0.68019 -1.445416,-0.68019 l -2.040591,-1.0203 -1.062808,-0.72271 -1.445418,-0.42512 -1.530443,-0.29759 -1.105318,0.0425 -1.190344,0.46763 -1.147832,0.6802 -1.147831,0.89276 c 0,0 -0.722709,0.72271 -0.807736,0.89276 -0.08502,0.17004 -0.76522,1.36039 -0.76522,1.36039 l -0.467635,1.44542 -0.297585,0.80773 -0.127537,1.70049 c 0,0 -0.04251,1.06281 0,1.27537 0.04251,0.21256 0.425122,1.48793 0.425122,1.48793 l 0.340098,1.44542 c 0,0 0.04251,1.0628 0.17005,1.23285 0.127538,0.17005 0.255072,0.63769 0.255072,0.63769 l 0.382611,0.6802 0.340098,0.51014"
         id="path15" /><path
         style="fill:none;stroke:#fec636;stroke-width:2.90399;stroke-linejoin:round;stroke-opacity:1"
         d="m 103.21984,103.4324 -2.25315,-2.29566 -1.445419,-1.147834 -1.785517,-1.062808 -1.487929,-0.807733 -1.82803,-0.552659 -1.657978,-0.17005 -1.402905,0.04251 -1.65798,0.595172 -1.360395,0.637683 -1.657979,0.680196 -0.76522,0.595173 -1.232858,0.85025 -0.637683,0.51015 -0.297587,0.12753"
         id="path16" /><path
         style="fill:none;stroke:#fec636;stroke-width:2.904;stroke-linejoin:round;stroke-opacity:1;stroke-dasharray:none"
         d="m 94.207234,107.21599 -13.433883,-6.63191 -2.210639,-0.17005 -1.700493,0.42512 -0.680196,0.17005 -0.08502,0.85025 0.595173,0.76522 0.850243,0.76522 13.178811,5.95172"
         id="path17" /><path
         style="fill:none;stroke:#fec636;stroke-width:2.90399;stroke-linejoin:round;stroke-dasharray:none;stroke-opacity:1"
         d="m 147.89878,120.36316 -44.48988,31.74413 -4.929953,14.78988"
         id="path18" /><path
         style="fill:none;stroke:#fec636;stroke-width:2.90399;stroke-linejoin:round;stroke-dasharray:none;stroke-opacity:1"
         d="m 97.3667,166.7168 2.495039,1.02206"
         id="path19" /><path
         style="fill:none;stroke:#fec636;stroke-width:2.90399;stroke-linejoin:round;stroke-dasharray:none;stroke-opacity:1"
         d="m 96.885727,166.5665 2.675406,1.1423"
         id="path20" /><path
         style="fill:none;stroke:#fec636;stroke-width:2.90399;stroke-linejoin:round;stroke-dasharray:none;stroke-opacity:1"
         d="m 146.73117,119.50205 2.82707,2.50822"
         id="path21" /><path
         style="fill:none;stroke:#fec636;stroke-width:2.90399;stroke-linejoin:round;stroke-dasharray:none;stroke-opacity:1"
         d="M 85.024581,132.89342 72.61099,181.44245"
         id="path22" /></g></g></svg>
