<?xml version="1.0" encoding="UTF-8" standalone="no"?>
<!-- Created with Inkscape (http://www.inkscape.org/) -->

<svg
   width="210mm"
   height="297mm"
   viewBox="0 0 210 297"
   version="1.1"
   id="svg1"
   inkscape:version="1.3.2 (091e20e, 2023-11-25, custom)"
   sodipodi:docname="RingForCentroidTracking_Graphic.svg"
   xml:space="preserve"
   xmlns:inkscape="http://www.inkscape.org/namespaces/inkscape"
   xmlns:sodipodi="http://sodipodi.sourceforge.net/DTD/sodipodi-0.dtd"
   xmlns="http://www.w3.org/2000/svg"
   xmlns:svg="http://www.w3.org/2000/svg"><sodipodi:namedview
     id="namedview1"
     pagecolor="#ffffff"
     bordercolor="#000000"
     borderopacity="0.25"
     inkscape:showpageshadow="2"
     inkscape:pageopacity="0.0"
     inkscape:pagecheckerboard="0"
     inkscape:deskcolor="#d1d1d1"
     inkscape:document-units="mm"
     inkscape:zoom="0.7779613"
     inkscape:cx="439.61056"
     inkscape:cy="517.37792"
     inkscape:window-width="2560"
     inkscape:window-height="1494"
     inkscape:window-x="2869"
     inkscape:window-y="-11"
     inkscape:window-maximized="1"
     inkscape:current-layer="layer1" /><defs
     id="defs1"><clipPath
       clipPathUnits="userSpaceOnUse"
       id="clipPath1"><rect
         style="opacity:0.46;fill:#959593;fill-opacity:0.575099;stroke:#96cfa2;stroke-width:0.104;stroke-linejoin:round;stroke-opacity:0.964706"
         id="rect2"
         width="71.424286"
         height="71.183807"
         x="61.564373"
         y="113.50931" /></clipPath></defs><g
     inkscape:label="Layer 1"
     inkscape:groupmode="layer"
     id="layer1"><path
       style="opacity:1;fill:none;fill-opacity:0.575099;stroke:#000000;stroke-width:2.90399;stroke-linejoin:round;stroke-dasharray:none;stroke-opacity:1"
       d="m 155.25488,98.288413 -0.85024,-3.911129 -1.19035,-3.571034 -3.57103,-5.271524 -10.88315,-8.162358 -2.55073,-1.870541 -4.25123,-2.210639 -4.50066,0.297474 -3.48705,2.164374 -8.65749,-13.106477 -1.32267,-2.164373 -1.92388,-0.240486 -31.263162,29.219028 -0.8417,-0.480973 -1.923886,0.8417 -0.480973,1.923889 1.442916,3.006071 1.563158,2.525102 4.448987,13.707693 -1.20243,1.32267 -2.404856,2.16437 0.721455,1.20243 8.41751,14.70157 4.939183,8.55491 -2.890835,2.04059 -3.230933,2.12562 -1.530442,-1.0203 -4.081182,-2.46571 -4.08118,-1.53044 -6.972014,-0.85025 -8.247385,0.93527 -7.482163,2.55074 -6.291818,3.91113 -5.016452,3.99616 -4.336253,5.10147 -4.8464,6.80197 -3.145909,5.78167 -2.465713,6.46187 -1.700493,5.44157 -0.595172,6.29182 -0.425122,2.89083 0.255074,4.67635 0.340098,3.91114 2.284364,3.02036 4.448988,1.56316 3.847773,-0.8417 4.088259,-2.76559 1.683401,-3.60728 -0.721457,-1.80365 -0.841701,-3.72753 1.322672,-8.89797 2.765587,-8.41701 6.252632,-8.89797 8.296761,-5.89191 9.378947,-3.60728 7.214575,0.96194 3.366802,1.92389"
       id="path4" /><path
       style="opacity:1;fill:none;fill-opacity:0.575099;stroke:#000000;stroke-width:2.90399;stroke-linejoin:round;stroke-dasharray:none;stroke-opacity:1"
       d="m 44.61012,193.23036 -8.417004,-2.76558 -5.891901,6.97408"
       id="path5" /><path
       style="opacity:1;fill:none;fill-opacity:0.575099;stroke:#000000;stroke-width:2.90399;stroke-linejoin:round;stroke-dasharray:none;stroke-opacity:1"
       d="m 36.433603,189.9838 -0.480972,-7.45506 0.480972,-9.85992 3.968015,-9.13846 7.936034,-8.77773 9.49919,-6.7336 10.701618,-3.12632 9.378947,1.44292 4.569232,3.48704 3.968015,6.01215 1.20243,8.05627 -0.480973,7.93603 -1.202428,7.93604 -3.366801,8.29676 -3.968017,6.25263 -8.777732,9.49919 -9.378947,4.2085 -9.01822,0.60122 -7.214574,-2.04414 -2.885829,-3.12631 -0.8417,-1.32267 3.487044,-1.44292 4.809715,1.56316 2.525101,3.12632 4.328745,1.08218 5.050203,0.36073 3.727532,-1.56316 4.929957,-2.16437"
       id="path6" /><path
       style="opacity:1;fill:none;fill-opacity:0.575099;stroke:#000000;stroke-width:2.90399;stroke-linejoin:round;stroke-dasharray:none;stroke-opacity:1"
       d="m 81.524696,154.51214 3.607287,4.32875 1.683401,4.56923"
       id="path7" /><path
       style="opacity:1;fill:none;fill-opacity:0.575099;stroke:#000000;stroke-width:2.90399;stroke-linejoin:round;stroke-dasharray:none;stroke-opacity:1"
       d="m 40.521863,202.24858 -3.607289,1.92389 -1.923886,3.00607 -0.240485,0.8417 1.082185,2.64534 3.607287,3.72754 4.44899,2.28461 6.132388,1.08219 6.613358,0.36073 6.493118,-1.44292 6.252631,-2.76559 7.094334,-5.53117 7.214573,-7.5753 5.170445,-9.25871 4.328745,-9.73968 1.563158,-6.7336 0.360731,-5.29069 0.240485,-7.5753 -0.601216,-7.09433 -0.120242,-1.44292 8.056277,-4.32874"
       id="path8" /><path
       style="opacity:1;fill:none;fill-opacity:0.575099;stroke:#000000;stroke-width:2.90399;stroke-linejoin:round;stroke-dasharray:none;stroke-opacity:1"
       d="m 105.93401,155.59433 -3.84778,3.24656 0.96195,4.08826 1.20243,6.61336 -0.36073,3.72753 -0.60122,7.69554 -1.56316,5.05021 -3.366798,8.05627 -5.8919,9.37895 -6.613361,7.33482 -6.853846,5.53117 -8.176519,3.84777 -7.936032,1.92389 h -6.012145 l -6.733604,-1.80364 -4.328744,-1.56316 -1.322674,-0.60121 -1.923885,-1.80365"
       id="path9" /><path
       style="opacity:1;fill:none;fill-opacity:0.575099;stroke:#000000;stroke-width:2.90399;stroke-linejoin:round;stroke-dasharray:none;stroke-opacity:1"
       d="m 103.16842,148.01903 5.17044,7.21457 49.17936,-42.92672 -0.8417,-4.68947 -4.44899,-3.96802 -0.8417,-0.96194 5.29069,0.72145 3.48704,3.48705 4.2085,4.32875 5.77166,4.80971 3.00607,2.40486 2.40486,2.04413 0.96195,2.76559 1.20243,3.00607 v 2.28461 l -3.24656,-3.00607 -4.80972,-4.2085 -6.37287,-5.53117 -5.53118,-4.80972"
       id="path10" /><path
       style="opacity:1;fill:none;fill-opacity:0.575099;stroke:#000000;stroke-width:2.90399;stroke-linejoin:round;stroke-dasharray:none;stroke-opacity:1"
       d="m 151.62631,119.6417 18.39717,16.11255 7.5753,-6.7336"
       id="path11" /><path
       style="opacity:1;fill:none;fill-opacity:0.575099;stroke:#000000;stroke-width:2.90399;stroke-linejoin:round;stroke-dasharray:none;stroke-opacity:1"
       d="m 170.74494,136.83644 15.1506,23.20688"
       id="path12" /><path
       style="opacity:1;fill:none;fill-opacity:0.575099;stroke:#000000;stroke-width:2.90399;stroke-linejoin:round;stroke-dasharray:none;stroke-opacity:1"
       d="m 105.81376,155.71457 1.56316,-1.32267"
       id="path13" /><path
       style="opacity:1;fill:none;fill-opacity:0.575099;stroke:#000000;stroke-width:2.90399;stroke-linejoin:round;stroke-dasharray:none;stroke-opacity:1"
       d="m 121.08461,166.65668 -13.34696,-9.49919 -1.08218,-1.80364"
       id="path14" /><path
       style="opacity:1;fill:none;fill-opacity:0.575099;stroke:#000000;stroke-width:2.90399;stroke-linejoin:round;stroke-dasharray:none;stroke-opacity:1"
       d="m 97.637247,139.36154 5.531173,9.01821"
       id="path15" /><path
       style="opacity:1;fill:none;fill-opacity:0.575099;stroke:#000000;stroke-width:2.90399;stroke-linejoin:round;stroke-dasharray:none;stroke-opacity:1"
       d="M 85.853441,111.58542 125.77409,75.753036"
       id="path16" /><path
       style="opacity:1;fill:none;fill-opacity:0.575099;stroke:#000000;stroke-width:2.90399;stroke-linejoin:round;stroke-dasharray:none;stroke-opacity:1"
       d="M 151.74656,103.28866 106.65546,142.00688 89.58097,114.47125 128.9004,79.721053 126.97652,74.67085"
       id="path17" /><path
       style="opacity:1;fill:none;fill-opacity:0.575099;stroke:#000000;stroke-width:2.90399;stroke-linejoin:round;stroke-dasharray:none;stroke-opacity:1"
       d="M 91.023886,114.11053 138.39959,85.372468 150.1834,103.52915"
       id="path18" /><path
       style="opacity:1;fill:none;fill-opacity:0.575099;stroke:#000000;stroke-width:2.90399;stroke-linejoin:round;stroke-dasharray:none;stroke-opacity:1"
       d="m 106.05425,121.08461 -4.80972,-6.61336 13.82794,-8.29676 5.65142,8.53725"
       id="path19" /><path
       style="opacity:1;fill:none;fill-opacity:0.575099;stroke:#000000;stroke-width:2.90399;stroke-linejoin:round;stroke-dasharray:none;stroke-opacity:1"
       d="m 101.00405,113.99028 -1.56316,-3.24656 14.66964,-8.65749 2.16437,4.68948"
       id="path20" /><path
       style="opacity:1;fill:none;fill-opacity:0.575099;stroke:#000000;stroke-width:2.90399;stroke-linejoin:round;stroke-dasharray:none;stroke-opacity:1"
       d="m 105.81376,120.00243 2.88583,5.17044 13.58745,-8.65749 -3.3668,-4.44898"
       id="path21" /><path
       style="opacity:1;fill:none;fill-opacity:0.575099;stroke:#000000;stroke-width:2.90399;stroke-linejoin:round;stroke-dasharray:none;stroke-opacity:1"
       d="m 155.47409,97.396759 -6.7336,3.126321"
       id="path22" /><path
       style="opacity:1;fill:none;fill-opacity:0.575099;stroke:#000000;stroke-width:2.90399;stroke-linejoin:round;stroke-dasharray:none;stroke-opacity:1"
       d="m 120.4834,166.41619 23.32713,28.49757 3.84777,1.80365 3.48704,-0.96195 35.47166,-30.90243 0.36073,-4.68947 -3.3668,-3.3668"
       id="path23" /><path
       style="opacity:1;fill:#0b0800;fill-opacity:1;stroke:#000000;stroke-width:2.90399;stroke-linejoin:round;stroke-dasharray:none;stroke-opacity:1"
       d="m 152.8742,131.61805 22.95663,28.73831 -28.56825,24.48708 -22.1064,-29.07841 z"
       id="path24" /><path
       style="opacity:1;fill:#fffefc;fill-opacity:1;stroke:#000000;stroke-width:1.004;stroke-linejoin:round;stroke-dasharray:none;stroke-opacity:1"
       d="m 145.73213,144.03164 8.33241,11.05319 6.12177,-4.93142 -8.50246,-10.88315 z"
       id="path25" /><path
       style="opacity:1;fill:#fffefc;fill-opacity:1;stroke:#000000;stroke-width:1.004;stroke-linejoin:round;stroke-dasharray:none;stroke-opacity:1"
       d="m 131.1079,156.78532 8.33241,10.373 4.93143,-4.25123 7.48216,10.0329 10.88314,-8.3324 -0.17004,-1.0203 -4.08118,-5.61162 -4.93143,4.08118 -3.91113,-4.76138 -5.61162,5.10148 -7.48217,-10.20295 z"
       id="path26" /><path
       style="opacity:1;fill:#000000;fill-opacity:1;stroke:#000000;stroke-width:2.90399;stroke-linejoin:round;stroke-dasharray:none;stroke-opacity:1"
       d="M 84.174334,90.296102 90.80625,104.75028 116.82377,81.963692 109.34161,68.359763 Z"
       id="path27" /><path
       style="opacity:1;fill:#fffefc;fill-opacity:1;stroke:#000000;stroke-width:1.004;stroke-linejoin:round;stroke-dasharray:none;stroke-opacity:1"
       d="m 89.275808,89.10576 2.550739,4.931426 12.923733,-11.393294 2.55074,4.591327 4.25123,-3.911131 -2.89084,-5.441574 -4.08118,4.931425 -1.19034,-2.720784 4.76137,-3.400983 -1.87054,-3.060886 -4.59132,4.251228 2.04059,2.550739 -4.42128,3.400983 -1.190345,-2.380689 z"
       id="path28" /></g></svg>
